@startuml
'https://plantuml.com/class-diagram

abstract class Component
abstract AbstractCollection
interface List
interface Collection

List <|-- Component
Collection <|-- AbstractCollection

Collection <|- List
AbstractCollection <|- Component
Component <|-- ArrayList

class ArrayList {
Object[] elementData
size()
}

enum TimeUnit {
DAYS
HOURS
MINUTES
}

@enduml